<svg width="44" height="38" viewBox="0 0 44 38" fill="none" xmlns="http://www.w3.org/2000/svg">
<path d="M37.3178 31.2991V35.1309C37.3178 35.6737 37.1338 36.1284 36.766 36.495C36.3994 36.8628 35.9447 37.0468 35.4019 37.0468C34.8591 37.0468 34.4043 36.8628 34.0378 36.495C33.6699 36.1284 33.486 35.6737 33.486 35.1309V31.2991H29.6542C29.1114 31.2991 28.6567 31.1152 28.2901 30.7473C27.9223 30.3808 27.7383 29.9261 27.7383 29.3832C27.7383 28.8404 27.9223 28.3857 28.2901 28.0191C28.6567 27.6513 29.1114 27.4673 29.6542 27.4673H33.486V23.6356C33.486 23.0927 33.6699 22.6374 34.0378 22.2695C34.4043 21.903 34.8591 21.7197 35.4019 21.7197C35.9447 21.7197 36.3994 21.903 36.766 22.2695C37.1338 22.6374 37.3178 23.0927 37.3178 23.6356V27.4673H41.1495C41.6924 27.4673 42.1471 27.6513 42.5137 28.0191C42.8815 28.3857 43.0654 28.8404 43.0654 29.3832C43.0654 29.9261 42.8815 30.3808 42.5137 30.7473C42.1471 31.1152 41.6924 31.2991 41.1495 31.2991H37.3178ZM4.74768 31.2991C4.20485 31.2991 3.75014 31.1152 3.38357 30.7473C3.01572 30.3808 2.8318 29.9261 2.8318 29.3832V19.8038H2.49652C1.88982 19.8038 1.39488 19.572 1.0117 19.1083C0.628525 18.6459 0.500799 18.1114 0.628525 17.5047L2.54441 7.92527C2.64021 7.47823 2.86373 7.11102 3.21497 6.82364C3.56622 6.53625 3.96536 6.39256 4.4124 6.39256H29.9895C30.4365 6.39256 30.8357 6.53625 31.1869 6.82364C31.5382 7.11102 31.7617 7.47823 31.8575 7.92527L33.7734 17.5047C33.9011 18.1114 33.7734 18.6459 33.3902 19.1083C33.007 19.572 32.5121 19.8038 31.9054 19.8038H31.5701V23.6356C31.5701 24.1784 31.3862 24.6331 31.0183 24.9997C30.6518 25.3675 30.1971 25.5514 29.6542 25.5514C29.1114 25.5514 28.6567 25.3675 28.2901 24.9997C27.9223 24.6331 27.7383 24.1784 27.7383 23.6356V19.8038H20.0748V29.3832C20.0748 29.9261 19.8915 30.3808 19.5249 30.7473C19.1571 31.1152 18.7017 31.2991 18.1589 31.2991H4.74768ZM6.66357 27.4673H16.243V19.8038H6.66357V27.4673ZM4.74768 4.47667C4.20485 4.47667 3.75014 4.29339 3.38357 3.92681C3.01572 3.55896 2.8318 3.10362 2.8318 2.56079C2.8318 2.01795 3.01572 1.56261 3.38357 1.19476C3.75014 0.828184 4.20485 0.644897 4.74768 0.644897H29.6542C30.1971 0.644897 30.6518 0.828184 31.0183 1.19476C31.3862 1.56261 31.5701 2.01795 31.5701 2.56079C31.5701 3.10362 31.3862 3.55896 31.0183 3.92681C30.6518 4.29339 30.1971 4.47667 29.6542 4.47667H4.74768ZM4.84348 15.972H29.5584L28.4089 10.2243H5.99301L4.84348 15.972Z" fill="#008BE5"/>
</svg>
