<svg width="35" height="35" viewBox="0 0 35 35" fill="none" xmlns="http://www.w3.org/2000/svg">
<mask id="mask0_31_1442" style="mask-type:alpha" maskUnits="userSpaceOnUse" x="0" y="0" width="35" height="35">
<rect x="34.8708" width="34.8709" height="34.8709" transform="rotate(90 34.8708 0)" fill="#008BE5"/>
</mask>
<g mask="url(#mask0_31_1442)">
<path d="M4.21354 13.2584L16.4183 1.01724C16.5636 0.871942 16.721 0.769267 16.8906 0.709211C17.0601 0.648187 17.2417 0.617675 17.4354 0.617675C17.6291 0.617675 17.8108 0.648187 17.9803 0.709211C18.1498 0.769267 18.3072 0.871942 18.4525 1.01724L30.6936 13.2584C31.0326 13.5974 31.2021 14.0212 31.2021 14.5297C31.2021 15.0382 31.0205 15.4741 30.6573 15.8374C30.2941 16.2006 29.8703 16.3822 29.386 16.3822C28.9016 16.3822 28.4779 16.2006 28.1146 15.8374L17.4354 5.15815L6.75621 15.8374C6.41718 16.1764 5.9997 16.3459 5.50376 16.3459C5.00685 16.3459 4.57678 16.1643 4.21354 15.801C3.8503 15.4378 3.66868 15.014 3.66868 14.5297C3.66868 14.0454 3.8503 13.6216 4.21354 13.2584Z" fill="#008BE5"/>
</g>
</svg>
