<svg width="35" height="35" viewBox="0 0 35 35" fill="none" xmlns="http://www.w3.org/2000/svg">
<mask id="mask0_70_296" style="mask-type:alpha" maskUnits="userSpaceOnUse" x="0" y="0" width="35" height="35">
<rect width="34.8709" height="34.8709" fill="#008BE5"/>
</mask>
<g mask="url(#mask0_70_296)">
<path d="M4.35896 10.1705C3.94729 10.1705 3.60245 10.0315 3.32446 9.75353C3.04549 9.47456 2.90601 9.12925 2.90601 8.71758V4.35872C2.90601 3.94704 3.04549 3.60173 3.32446 3.32276C3.60245 3.04476 3.94729 2.90576 4.35896 2.90576H8.71782C9.12949 2.90576 9.47481 3.04476 9.75377 3.32276C10.0318 3.60173 10.1708 3.94704 10.1708 4.35872C10.1708 4.77039 10.0318 5.11522 9.75377 5.39322C9.47481 5.67218 9.12949 5.81167 8.71782 5.81167H5.81191V8.71758C5.81191 9.12925 5.67291 9.47456 5.39492 9.75353C5.11595 10.0315 4.77063 10.1705 4.35896 10.1705ZM4.35896 31.9648C3.94729 31.9648 3.60245 31.8253 3.32446 31.5464C3.04549 31.2684 2.90601 30.9235 2.90601 30.5119V26.153C2.90601 25.7413 3.04549 25.3965 3.32446 25.1185C3.60245 24.8395 3.94729 24.7001 4.35896 24.7001C4.77063 24.7001 5.11595 24.8395 5.39492 25.1185C5.67291 25.3965 5.81191 25.7413 5.81191 26.153V29.0589H8.71782C9.12949 29.0589 9.47481 29.1984 9.75377 29.4774C10.0318 29.7554 10.1708 30.1002 10.1708 30.5119C10.1708 30.9235 10.0318 31.2684 9.75377 31.5464C9.47481 31.8253 9.12949 31.9648 8.71782 31.9648H4.35896ZM26.1533 31.9648C25.7416 31.9648 25.3968 31.8253 25.1188 31.5464C24.8398 31.2684 24.7003 30.9235 24.7003 30.5119C24.7003 30.1002 24.8398 29.7554 25.1188 29.4774C25.3968 29.1984 25.7416 29.0589 26.1533 29.0589H29.0592V26.153C29.0592 25.7413 29.1987 25.3965 29.4776 25.1185C29.7556 24.8395 30.1004 24.7001 30.5121 24.7001C30.9238 24.7001 31.2686 24.8395 31.5466 25.1185C31.8256 25.3965 31.9651 25.7413 31.9651 26.153V30.5119C31.9651 30.9235 31.8256 31.2684 31.5466 31.5464C31.2686 31.8253 30.9238 31.9648 30.5121 31.9648H26.1533ZM30.5121 10.1705C30.1004 10.1705 29.7556 10.0315 29.4776 9.75353C29.1987 9.47456 29.0592 9.12925 29.0592 8.71758V5.81167H26.1533C25.7416 5.81167 25.3968 5.67218 25.1188 5.39322C24.8398 5.11522 24.7003 4.77039 24.7003 4.35872C24.7003 3.94704 24.8398 3.60173 25.1188 3.32276C25.3968 3.04476 25.7416 2.90576 26.1533 2.90576H30.5121C30.9238 2.90576 31.2686 3.04476 31.5466 3.32276C31.8256 3.60173 31.9651 3.94704 31.9651 4.35872V8.71758C31.9651 9.12925 31.8256 9.47456 31.5466 9.75353C31.2686 10.0315 30.9238 10.1705 30.5121 10.1705ZM25.4268 25.4265H27.6062V27.606H25.4268V25.4265ZM25.4268 21.0677H27.6062V23.2471H25.4268V21.0677ZM23.2474 23.2471H25.4268V25.4265H23.2474V23.2471ZM21.0679 25.4265H23.2474V27.606H21.0679V25.4265ZM18.8885 23.2471H21.0679V25.4265H18.8885V23.2471ZM23.2474 18.8882H25.4268V21.0677H23.2474V18.8882ZM21.0679 21.0677H23.2474V23.2471H21.0679V21.0677ZM18.8885 18.8882H21.0679V21.0677H18.8885V18.8882ZM27.6062 7.26462V15.9823H18.8885V7.26462H27.6062ZM15.9826 18.8882V27.606H7.26487V18.8882H15.9826ZM15.9826 7.26462V15.9823H7.26487V7.26462H15.9826ZM13.8032 25.4265V21.0677H9.4443V25.4265H13.8032ZM13.8032 13.8029V9.44405H9.4443V13.8029H13.8032ZM25.4268 13.8029V9.44405H21.0679V13.8029H25.4268Z" fill="#008BE5"/>
</g>
</svg>
