<svg width="20" height="16" viewBox="0 0 20 16" fill="none" xmlns="http://www.w3.org/2000/svg">
<path d="M14.3 9.2748C14.1167 9.09147 14.025 8.85814 14.025 8.5748C14.025 8.29147 14.1167 8.05814 14.3 7.8748L16.175 5.9998H10C9.71671 5.9998 9.47938 5.9038 9.28805 5.7118C9.09605 5.52047 9.00005 5.28314 9.00005 4.9998C9.00005 4.71647 9.09605 4.4788 9.28805 4.2868C9.47938 4.09547 9.71671 3.9998 10 3.9998H16.175L14.3 2.1248C14.1167 1.94147 14.025 1.7038 14.025 1.4118C14.025 1.12047 14.1167 0.883138 14.3 0.699804C14.4834 0.516471 14.7167 0.424805 15 0.424805C15.2834 0.424805 15.5167 0.516471 15.7 0.699804L19.3 4.2998C19.4 4.3998 19.4711 4.50814 19.5131 4.6248C19.5544 4.74147 19.5751 4.86647 19.5751 4.9998C19.5751 5.13314 19.5544 5.25814 19.5131 5.3748C19.4711 5.49147 19.4 5.5998 19.3 5.6998L15.7 9.2998C15.5167 9.48314 15.2834 9.57047 15 9.5618C14.7167 9.5538 14.4834 9.45814 14.3 9.2748ZM4.30005 15.2998L0.700049 11.6998C0.600049 11.5998 0.529382 11.4915 0.488049 11.3748C0.446049 11.2581 0.425049 11.1331 0.425049 10.9998C0.425049 10.8665 0.446049 10.7415 0.488049 10.6248C0.529382 10.5081 0.600049 10.3998 0.700049 10.2998L4.30005 6.6998C4.48338 6.51647 4.71672 6.4248 5.00005 6.4248C5.28338 6.4248 5.51672 6.51647 5.70005 6.6998C5.88338 6.88314 5.97505 7.12047 5.97505 7.4118C5.97505 7.7038 5.88338 7.94147 5.70005 8.1248L3.82505 9.9998H10C10.2834 9.9998 10.521 10.0955 10.713 10.2868C10.9044 10.4788 11 10.7165 11 10.9998C11 11.2831 10.9044 11.5205 10.713 11.7118C10.521 11.9038 10.2834 11.9998 10 11.9998H3.82505L5.70005 13.8748C5.88338 14.0581 5.97505 14.2915 5.97505 14.5748C5.97505 14.8581 5.88338 15.0915 5.70005 15.2748C5.51672 15.4581 5.28338 15.5538 5.00005 15.5618C4.71672 15.5705 4.48338 15.4831 4.30005 15.2998Z" fill="#62BBFF"/>
</svg>
