<svg width="20" height="16" viewBox="0 0 20 16" fill="none" xmlns="http://www.w3.org/2000/svg">
<path d="M14.3 9.27505C14.1167 9.09171 14.025 8.85838 14.025 8.57505C14.025 8.29172 14.1167 8.05838 14.3 7.87505L16.175 6.00005H10C9.71667 6.00005 9.47933 5.90405 9.288 5.71205C9.096 5.52072 9 5.28338 9 5.00005C9 4.71672 9.096 4.47905 9.288 4.28705C9.47933 4.09572 9.71667 4.00005 10 4.00005H16.175L14.3 2.12505C14.1167 1.94172 14.025 1.70405 14.025 1.41205C14.025 1.12072 14.1167 0.883382 14.3 0.700048C14.4833 0.516715 14.7167 0.425049 15 0.425049C15.2833 0.425049 15.5167 0.516715 15.7 0.700048L19.3 4.30005C19.4 4.40005 19.471 4.50838 19.513 4.62505C19.5543 4.74172 19.575 4.86672 19.575 5.00005C19.575 5.13338 19.5543 5.25838 19.513 5.37505C19.471 5.49172 19.4 5.60005 19.3 5.70005L15.7 9.30005C15.5167 9.48338 15.2833 9.57072 15 9.56205C14.7167 9.55405 14.4833 9.45838 14.3 9.27505ZM4.3 15.3L0.699999 11.7C0.599999 11.6 0.529333 11.4917 0.487999 11.375C0.445999 11.2584 0.424999 11.1334 0.424999 11C0.424999 10.8667 0.445999 10.7417 0.487999 10.625C0.529333 10.5084 0.599999 10.4 0.699999 10.3L4.3 6.70005C4.48333 6.51672 4.71667 6.42505 5 6.42505C5.28333 6.42505 5.51667 6.51672 5.7 6.70005C5.88333 6.88338 5.975 7.12072 5.975 7.41205C5.975 7.70405 5.88333 7.94172 5.7 8.12505L3.825 10H10C10.2833 10 10.521 10.0957 10.713 10.287C10.9043 10.479 11 10.7167 11 11C11 11.2834 10.9043 11.5207 10.713 11.712C10.521 11.904 10.2833 12 10 12H3.825L5.7 13.875C5.88333 14.0584 5.975 14.2917 5.975 14.575C5.975 14.8584 5.88333 15.0917 5.7 15.275C5.51667 15.4584 5.28333 15.554 5 15.562C4.71667 15.5707 4.48333 15.4834 4.3 15.3Z" fill="#62BBFF"/>
</svg>
